<?xml version="1.0" standalone="no"?>
<!DOCTYPE svg PUBLIC "-//W3C//DTD SVG 20010904//EN"
 "http://www.w3.org/TR/2001/REC-SVG-20010904/DTD/svg10.dtd">
<svg version="1.0" xmlns="http://www.w3.org/2000/svg"
 width="1024.000000pt" height="1024.000000pt" viewBox="0 0 1024.000000 1024.000000"
 preserveAspectRatio="xMidYMid meet">

<g transform="translate(0.000000,1024.000000) scale(0.100000,-0.100000)"
fill="#00a3e4" stroke="none">
<path d="M4115 7959 c-33 -5 -107 -21 -164 -35 -667 -166 -1214 -597 -1514
-1189 -123 -244 -175 -403 -222 -685 -22 -126 -22 -1751 0 -1892 67 -446 285
-881 613 -1220 196 -202 367 -326 627 -453 180 -88 285 -127 456 -168 196 -48
205 -48 1259 -45 988 4 996 4 1093 26 605 138 1087 469 1417 972 85 129 198
366 254 530 25 74 59 203 76 285 l30 150 0 862 c0 556 -4 889 -11 940 -61 451
-306 935 -644 1277 -302 306 -686 516 -1135 622 l-115 28 -980 2 c-539 1
-1007 -2 -1040 -7z m1532 -694 c65 -19 139 -85 169 -150 23 -47 24 -61 24
-257 l0 -208 60 0 60 0 0 -1730 0 -1730 -840 0 -840 0 -2 1730 -3 1730 62 0
62 0 3 224 3 223 34 49 c43 63 82 94 145 116 46 16 99 17 532 18 398 0 489 -3
531 -15z m-1617 -2329 c0 -943 -3 -1721 -6 -1730 -5 -14 -27 -16 -148 -16
-184 0 -239 11 -363 71 -196 94 -343 273 -394 479 -20 81 -21 2318 0 2400 57
234 260 439 491 495 35 8 122 14 237 14 l183 1 0 -1714z m2640 1687 c179 -66
314 -186 400 -355 74 -148 71 -87 68 -1363 l-3 -1140 -27 -80 c-78 -228 -265
-408 -490 -472 -32 -9 -120 -17 -224 -20 l-171 -6 -6 79 c-8 90 -7 3277 0
3343 l5 43 197 -4 c165 -4 205 -8 251 -25z"/>
<path d="M4741 6946 c-42 -23 -50 -53 -51 -178 l0 -118 430 0 430 0 0 115 c0
123 -11 164 -49 185 -31 16 -730 13 -760 -4z"/>
<path d="M4538 6303 c-2 -5 -2 -630 0 -1391 l2 -1382 578 2 577 3 3 1388 2
1387 -579 0 c-319 0 -581 -3 -583 -7z"/>
<path d="M3692 6301 c-66 -23 -152 -82 -187 -127 -14 -19 -36 -56 -48 -82
l-22 -47 0 -1110 0 -1110 32 -68 c52 -109 162 -203 261 -223 l32 -6 0 1396 c0
768 -3 1396 -7 1396 -5 -1 -32 -9 -61 -19z"/>
<path d="M6470 4925 l0 -1395 24 0 c41 0 161 68 206 116 23 25 56 75 73 112
l32 67 2 1080 c2 1196 4 1152 -62 1252 -20 29 -56 68 -83 87 -49 36 -140 76
-173 76 -19 0 -19 -28 -19 -1395z"/>
</g>
</svg>
